<?xml version="1.0" standalone="no"?>
<svg version="1.0" xmlns="http://www.w3.org/2000/svg"
 width="298.000000pt" height="299.000000pt" viewBox="0 0 298.000000 299.000000"
 preserveAspectRatio="xMidYMid meet">

<g transform="translate(0.000000,299.000000) scale(0.100000,-0.100000)"
fill="#000000" stroke="none">
<path d="M1328 2973 c7 -3 16 -2 19 1 4 3 -2 6 -13 5 -11 0 -14 -3 -6 -6z"/>
<path d="M1618 2973 c7 -3 16 -2 19 1 4 3 -2 6 -13 5 -11 0 -14 -3 -6 -6z"/>
<path d="M509 2623 c-13 -16 -12 -17 4 -4 9 7 17 15 17 17 0 8 -8 3 -21 -13z"/>
<path d="M2430 2636 c0 -2 8 -10 18 -17 15 -13 16 -12 3 4 -13 16 -21 21 -21
13z"/>
<path d="M984 2605 c-14 -14 -39 -32 -57 -40 -79 -38 -106 -56 -135 -90 -18
-19 -32 -42 -32 -50 0 -8 -4 -15 -8 -15 -11 0 -42 -66 -42 -90 0 -11 -4 -28
-9 -38 -67 -130 -64 -121 -47 -147 10 -15 16 -46 16 -79 0 -31 6 -73 14 -93 8
-21 17 -78 20 -128 8 -116 48 -369 56 -355 4 6 15 -15 25 -47 34 -111 47 -143
56 -143 12 0 11 58 -3 156 -10 74 -10 93 9 186 12 56 24 141 28 188 11 151 60
221 194 271 49 18 82 21 275 24 253 5 309 9 391 35 204 65 296 36 365 -115 36
-78 60 -187 67 -303 3 -51 10 -95 14 -98 21 -13 -1 337 -27 441 -9 33 -29 77
-45 97 -16 20 -29 45 -29 55 0 86 -64 162 -193 230 -165 86 -204 100 -407 148
-57 13 -204 18 -360 12 -19 -1 -52 2 -73 6 -32 7 -40 5 -63 -18z"/>
<path d="M2595 2470 c10 -11 20 -20 23 -20 3 0 -3 9 -13 20 -10 11 -20 20 -23
20 -3 0 3 -9 13 -20z"/>
<path d="M349 2463 c-13 -16 -12 -17 4 -4 9 7 17 15 17 17 0 8 -8 3 -21 -13z"/>
<path d="M2630 2426 c0 -2 8 -10 18 -17 15 -13 16 -12 3 4 -13 16 -21 21 -21
13z"/>
<path d="M1130 1748 c-41 -22 -90 -72 -79 -82 3 -3 34 7 69 21 56 23 80 27
172 27 60 1 108 5 108 9 0 4 -19 17 -42 27 -62 28 -170 27 -228 -2z"/>
<path d="M1797 1684 c-14 -15 -6 -22 46 -43 94 -37 195 -52 226 -32 20 13 -31
37 -121 58 -96 21 -141 26 -151 17z"/>
<path d="M1 1634 c0 -11 3 -14 6 -6 3 7 2 16 -1 19 -3 4 -6 -2 -5 -13z"/>
<path d="M2951 1634 c0 -11 3 -14 6 -6 3 7 2 16 -1 19 -3 4 -6 -2 -5 -13z"/>
<path d="M2182 1590 c0 -19 3 -57 8 -85 l7 -50 1 45 c1 25 -3 63 -7 85 l-9 40
0 -35z"/>
<path d="M1908 1534 c-32 -10 -58 -27 -82 -56 -34 -40 -45 -61 -28 -55 4 1 21
-13 37 -31 29 -31 32 -32 70 -21 22 6 50 20 63 32 19 17 25 19 31 8 7 -11 11
-9 20 7 13 25 14 82 1 102 -7 12 -3 16 23 21 24 5 17 7 -28 7 -33 0 -81 -6
-107 -14z m-18 -39 c0 -9 -9 -15 -21 -15 -18 0 -19 2 -9 15 7 8 16 15 21 15 5
0 9 -7 9 -15z"/>
<path d="M1185 1465 c-27 -7 -61 -18 -75 -24 -23 -10 -22 -10 10 -5 l35 5 0
-55 c0 -30 5 -60 12 -67 7 -7 37 -14 67 -17 45 -4 59 -1 85 19 24 18 34 20 40
11 12 -20 31 33 25 68 -11 51 23 32 60 -35 l17 -30 -6 34 c-15 91 -133 133
-270 96z m53 -38 c4 -20 -25 -34 -40 -19 -15 15 -1 44 19 40 10 -2 19 -11 21
-21z"/>
<path d="M1 1364 c0 -11 3 -14 6 -6 3 7 2 16 -1 19 -3 4 -6 -2 -5 -13z"/>
<path d="M2951 1364 c0 -11 3 -14 6 -6 3 7 2 16 -1 19 -3 4 -6 -2 -5 -13z"/>
<path d="M1716 1085 c-11 -8 -30 -15 -43 -15 -13 0 -23 -5 -23 -10 0 -6 11 -8
28 -4 37 9 62 23 62 34 0 13 -1 12 -24 -5z"/>
<path d="M1725 960 c-16 -4 -56 -8 -87 -9 -31 0 -60 -6 -63 -11 -8 -14 113 -2
170 16 43 13 29 16 -20 4z"/>
<path d="M1483 943 c9 -2 25 -2 35 0 9 3 1 5 -18 5 -19 0 -27 -2 -17 -5z"/>
<path d="M1237 659 c7 -7 15 -10 18 -7 3 3 -2 9 -12 12 -14 6 -15 5 -6 -5z"/>
<path d="M310 586 c0 -2 8 -10 18 -17 15 -13 16 -12 3 4 -13 16 -21 21 -21 13z"/>
<path d="M2629 573 c-13 -16 -12 -17 4 -4 16 13 21 21 13 21 -2 0 -10 -8 -17
-17z"/>
<path d="M350 537 c0 -2 15 -16 33 -33 l32 -29 -29 33 c-28 30 -36 37 -36 29z"/>
<path d="M2569 503 l-34 -38 38 34 c20 19 37 36 37 38 0 8 -8 0 -41 -34z"/>
<path d="M2480 415 c-24 -25 -42 -45 -39 -45 3 0 25 20 49 45 24 25 42 45 39
45 -3 0 -25 -20 -49 -45z"/>
<path d="M460 427 c0 -2 15 -16 33 -33 l32 -29 -29 33 c-28 30 -36 37 -36 29z"/>
<path d="M540 356 c0 -2 8 -10 18 -17 15 -13 16 -12 3 4 -13 16 -21 21 -21 13z"/>
<path d="M2399 343 c-13 -16 -12 -17 4 -4 9 7 17 15 17 17 0 8 -8 3 -21 -13z"/>
<path d="M1353 23 c9 -2 23 -2 30 0 6 3 -1 5 -18 5 -16 0 -22 -2 -12 -5z"/>
<path d="M1583 23 c9 -2 23 -2 30 0 6 3 -1 5 -18 5 -16 0 -22 -2 -12 -5z"/>
</g>
</svg>
