<?xml version="1.0" standalone="no"?>
<svg version="1.0" xmlns="http://www.w3.org/2000/svg"
 width="397.000000pt" height="399.000000pt" viewBox="0 0 397.000000 399.000000"
 preserveAspectRatio="xMidYMid meet">

<g transform="translate(0.000000,399.000000) scale(0.100000,-0.100000)"
fill="#000000" stroke="none">
<path d="M1655 3946 c-221 -44 -370 -96 -565 -197 -512 -265 -881 -761 -1006
-1352 -35 -167 -44 -483 -20 -661 91 -649 482 -1201 1056 -1489 205 -103 430
-174 612 -193 37 -4 66 -9 64 -13 -8 -12 362 -1 463 14 287 42 573 152 800
307 51 34 107 72 124 83 18 11 40 30 50 42 10 13 22 21 26 19 9 -6 215 203
217 221 1 8 14 23 29 35 14 11 24 22 21 25 -2 2 22 41 55 86 69 96 174 295
224 426 45 117 91 295 107 413 6 51 14 95 17 98 8 7 8 383 0 390 -3 3 -11 47
-17 98 -35 267 -150 566 -310 807 -37 55 -66 103 -64 107 1 4 -9 15 -23 24
-14 9 -25 21 -25 28 0 19 -252 258 -341 322 -241 177 -489 288 -777 351 -103
22 -146 25 -357 29 -222 3 -249 2 -360 -20z m680 -155 c750 -153 1318 -759
1430 -1522 20 -138 20 -390 0 -528 -116 -797 -731 -1419 -1518 -1535 -135 -21
-379 -21 -514 0 -378 56 -725 230 -996 498 -286 284 -464 641 -523 1046 -23
160 -15 472 16 615 139 652 588 1163 1201 1369 89 29 162 46 349 80 14 2 120
3 235 2 171 -2 230 -7 320 -25z"/>
<path d="M1311 3476 c-12 -12 -58 -42 -103 -66 -81 -43 -188 -131 -188 -155 0
-6 -11 -26 -25 -45 -14 -19 -32 -59 -41 -90 -9 -30 -34 -94 -57 -142 l-41 -88
16 -47 c9 -27 19 -80 23 -120 3 -40 11 -87 16 -105 5 -18 19 -109 30 -203 29
-254 57 -414 78 -449 10 -17 33 -75 50 -128 38 -115 61 -144 61 -77 0 24 -5
98 -12 165 -11 110 -10 132 10 255 12 74 29 184 37 245 28 219 84 297 260 364
55 20 85 23 335 31 380 11 416 14 574 54 168 42 239 45 312 11 119 -55 199
-226 230 -490 27 -235 25 -226 35 -191 5 17 5 97 -1 185 -20 318 -39 410 -105
520 -18 30 -36 76 -40 101 -8 61 -54 130 -124 186 -86 69 -349 195 -483 231
-216 59 -252 64 -550 66 -273 3 -278 3 -297 -18z"/>
<path d="M1533 2344 c-48 -17 -138 -94 -132 -111 3 -8 33 -2 94 18 76 26 111
31 228 36 75 3 137 10 137 15 0 5 -21 19 -47 31 -63 28 -218 34 -280 11z"/>
<path d="M2390 2237 c0 -22 40 -41 146 -72 114 -33 224 -36 224 -6 0 23 -191
78 -302 88 -58 5 -68 4 -68 -10z"/>
<path d="M2912 2095 c-1 -27 3 -68 7 -90 l9 -40 0 40 c0 22 -3 63 -8 90 l-7
50 -1 -50z"/>
<path d="M2620 2059 c-87 -9 -129 -28 -176 -79 -60 -65 -60 -65 -7 -115 26
-25 52 -45 59 -45 22 0 96 30 125 51 22 16 33 18 43 10 22 -18 40 39 33 109
-3 38 -1 60 6 63 27 9 -23 12 -83 6z m-102 -61 c-3 -7 -15 -15 -28 -16 -21 -3
-22 -2 -11 12 16 19 44 21 39 4z"/>
<path d="M1585 1955 c-27 -7 -61 -18 -75 -24 l-25 -10 28 0 c27 -1 27 -2 27
-69 0 -94 9 -104 103 -110 66 -4 80 -2 112 18 19 12 42 20 50 17 22 -9 38 20
39 71 1 26 6 49 11 51 6 3 27 -20 49 -50 38 -53 38 -54 32 -19 -10 52 -55 101
-112 122 -59 21 -169 22 -239 3z m59 -41 c7 -19 -10 -44 -31 -44 -17 0 -27 24
-19 45 7 20 42 19 50 -1z"/>
<path d="M2290 1450 c-8 -6 -33 -15 -55 -22 -26 -7 -34 -13 -22 -15 23 -6 82
14 97 33 14 16 2 19 -20 4z"/>
<path d="M2285 1279 c-22 -4 -67 -8 -100 -9 -33 0 -67 -5 -75 -10 -11 -7 1
-10 40 -9 57 0 186 21 197 32 8 8 -9 7 -62 -4z"/>
<path d="M1645 880 c3 -5 11 -10 16 -10 6 0 7 5 4 10 -3 6 -11 10 -16 10 -6 0
-7 -4 -4 -10z"/>
<path d="M680 3505 c-11 -13 -10 -14 4 -9 9 3 16 10 16 15 0 13 -6 11 -20 -6z"/>
<path d="M470 3295 c-11 -13 -10 -14 4 -9 9 3 16 10 16 15 0 13 -6 11 -20 -6z"/>
<path d="M1 2184 c0 -11 3 -14 6 -6 3 7 2 16 -1 19 -3 4 -6 -2 -5 -13z"/>
<path d="M1 1824 c0 -11 3 -14 6 -6 3 7 2 16 -1 19 -3 4 -6 -2 -5 -13z"/>
<path d="M420 776 c0 -2 8 -10 18 -17 15 -13 16 -12 3 4 -13 16 -21 21 -21 13z"/>
<path d="M470 717 c0 -2 15 -16 33 -33 l32 -29 -29 33 c-28 30 -36 37 -36 29z"/>
<path d="M640 545 c13 -14 26 -25 28 -25 3 0 -5 11 -18 25 -13 14 -26 25 -28
25 -3 0 5 -11 18 -25z"/>
<path d="M720 476 c0 -2 8 -10 18 -17 15 -13 16 -12 3 4 -13 16 -21 21 -21 13z"/>
</g>
</svg>
