<?xml version="1.0" standalone="no"?>
<!DOCTYPE svg PUBLIC "-//W3C//DTD SVG 20010904//EN"
 "http://www.w3.org/TR/2001/REC-SVG-20010904/DTD/svg10.dtd">
<svg version="1.0" xmlns="http://www.w3.org/2000/svg"
 width="1400.000000pt" height="299.000000pt" viewBox="0 0 1400.000000 299.000000"
 preserveAspectRatio="xMidYMid meet">

<g transform="translate(0.000000,299.000000) scale(0.100000,-0.100000)"
fill="#000000" stroke="none">
<path d="M1328 2973 c7 -3 16 -2 19 1 4 3 -2 6 -13 5 -11 0 -14 -3 -6 -6z"/>
<path d="M1618 2973 c7 -3 16 -2 19 1 4 3 -2 6 -13 5 -11 0 -14 -3 -6 -6z"/>
<path d="M7870 2669 c0 -52 3 -62 20 -66 18 -5 20 -14 20 -88 0 -74 -2 -83
-20 -88 -17 -4 -20 -14 -20 -62 0 -48 3 -58 20 -62 11 -3 20 -8 21 -12 0 -3 2
-15 5 -26 2 -11 1 -46 -2 -77 -5 -48 -9 -58 -25 -58 -17 0 -19 -8 -19 -60 l0
-60 124 0 c133 0 192 13 234 53 32 29 59 84 64 126 l3 34 -59 1 c-58 1 -58 1
-70 -34 -12 -39 -45 -60 -93 -60 l-33 0 0 90 0 89 88 3 87 3 3 53 3 52 -95 0
-96 0 4 98 4 97 42 -2 c47 -2 90 -33 90 -65 0 -15 9 -18 61 -18 l61 0 -7 33
c-11 48 -30 81 -69 115 -48 42 -91 52 -228 52 l-118 0 0 -61z"/>
<path d="M8568 2671 c-1 -34 0 -62 4 -64 5 -1 4 -47 -2 -102 -16 -169 -13
-333 9 -380 69 -153 282 -164 372 -18 23 36 24 48 28 236 2 109 0 214 -4 233
-8 47 -80 119 -132 133 -21 5 -90 12 -155 16 l-116 7 -4 -61z m248 -77 c34 -9
48 -47 47 -132 -2 -295 -1 -281 -28 -307 -16 -17 -35 -25 -60 -25 -25 0 -44 8
-60 25 -25 24 -25 27 -25 187 0 171 8 221 37 244 19 14 54 17 89 8z"/>
<path d="M7280 2710 c-58 -4 -107 -8 -109 -9 -8 -2 9 -116 18 -119 5 -2 6 -15
2 -30 -12 -40 4 -158 24 -189 42 -64 109 -93 197 -85 52 4 57 2 73 -22 21 -32
14 -80 -17 -113 -44 -47 -138 -16 -138 47 0 22 -2 23 -57 16 -32 -4 -61 -10
-65 -14 -15 -15 15 -85 54 -128 74 -81 185 -90 277 -24 55 41 76 89 75 176 -1
126 -52 174 -186 174 -60 0 -72 3 -93 25 -35 34 -35 102 1 144 46 55 124 32
144 -43 4 -14 16 -20 45 -22 91 -8 103 12 61 102 -30 64 -91 109 -156 116 -25
3 -92 2 -150 -2z"/>
<path d="M9220 2665 c0 -30 -1 -58 -2 -62 -2 -5 9 -9 25 -11 32 -4 31 23 12
-287 -8 -132 -15 -256 -15 -276 l0 -36 62 -6 c35 -3 63 -5 64 -4 1 1 7 92 13
202 6 110 13 232 16 270 2 39 5 82 5 98 0 25 3 27 38 27 50 0 104 -29 112 -60
4 -14 3 -83 -1 -155 -4 -71 -10 -187 -14 -257 l-7 -128 61 0 c34 0 61 1 61 3
1 1 5 74 10 162 5 88 12 210 16 270 7 122 0 153 -51 213 -38 45 -75 58 -206
71 -63 6 -133 14 -156 16 l-43 5 0 -55z"/>
<path d="M10387 2673 c-3 -10 -9 -42 -12 -70 -6 -49 -5 -53 14 -53 18 0 21 -6
20 -47 0 -27 -4 -70 -7 -98 -6 -44 -10 -50 -29 -48 -25 3 -30 -10 -35 -87 -3
-51 -1 -55 20 -58 17 -3 21 -8 17 -25 -8 -36 -27 -269 -22 -273 8 -8 111 -22
123 -17 7 2 16 54 23 131 17 184 8 167 94 167 65 1 79 4 123 33 62 40 91 83
105 155 17 96 -1 157 -65 218 -42 39 -82 53 -201 68 -49 7 -106 14 -127 17
-29 4 -37 2 -41 -13z m265 -154 c22 -12 48 -61 48 -89 0 -55 -52 -100 -114
-100 -45 0 -49 11 -41 114 l7 97 42 -6 c22 -4 49 -11 58 -16z"/>
<path d="M6556 2673 l-88 -4 7 -57 c4 -31 10 -58 14 -60 4 -1 5 -28 3 -59 -3
-31 1 -130 8 -219 10 -131 17 -170 34 -201 60 -106 213 -138 321 -67 35 23 76
95 80 141 2 21 9 39 14 41 6 2 11 31 11 64 l0 61 -47 -6 c-27 -3 -86 -9 -132
-13 l-83 -7 6 -36 c3 -20 6 -47 6 -60 0 -22 3 -23 50 -19 47 4 50 3 44 -16
-22 -74 -120 -90 -154 -25 -11 20 -30 206 -31 318 -1 54 2 67 22 86 58 56 139
23 154 -63 l7 -42 54 0 c59 0 58 -1 54 70 -4 70 -69 152 -131 166 -39 8 -128
11 -223 7z"/>
<path d="M509 2623 c-13 -16 -12 -17 4 -4 9 7 17 15 17 17 0 8 -8 3 -21 -13z"/>
<path d="M2430 2636 c0 -2 8 -10 18 -17 15 -13 16 -12 3 4 -13 16 -21 21 -21
13z"/>
<path d="M984 2605 c-14 -14 -39 -32 -57 -40 -79 -38 -106 -56 -135 -90 -18
-19 -32 -42 -32 -50 0 -8 -4 -15 -8 -15 -11 0 -42 -66 -42 -90 0 -11 -4 -28
-9 -38 -67 -130 -64 -121 -47 -147 10 -15 16 -46 16 -79 0 -31 6 -73 14 -93 8
-21 17 -78 20 -128 8 -116 48 -369 56 -355 4 6 15 -15 25 -47 34 -111 47 -143
56 -143 12 0 11 58 -3 156 -10 74 -10 93 9 186 12 56 24 141 28 188 11 151 60
221 194 271 49 18 82 21 275 24 253 5 309 9 391 35 204 65 296 36 365 -115 36
-78 60 -187 67 -303 3 -51 10 -95 14 -98 21 -13 -1 337 -27 441 -9 33 -29 77
-45 97 -16 20 -29 45 -29 55 0 86 -64 162 -193 230 -165 86 -204 100 -407 148
-57 13 -204 18 -360 12 -19 -1 -52 2 -73 6 -32 7 -40 5 -63 -18z"/>
<path d="M6008 2625 c-2 -2 -64 -6 -138 -10 -74 -3 -139 -10 -143 -14 -5 -5
-7 -32 -5 -62 3 -52 4 -54 30 -52 33 2 32 6 48 -167 6 -69 18 -188 25 -265 8
-77 15 -146 15 -154 0 -11 13 -12 62 -7 35 4 64 9 66 10 3 3 -23 285 -42 466
-8 69 -13 126 -12 127 1 1 24 3 51 4 54 3 89 -11 104 -40 9 -17 27 -161 53
-422 12 -129 2 -118 92 -104 l39 6 -7 82 c-3 45 -10 114 -16 152 -5 39 -14
121 -20 184 -6 62 -17 127 -24 145 -21 49 -78 98 -130 111 -25 7 -47 11 -48
10z"/>
<path d="M5390 2561 l-45 -6 0 -50 c1 -51 9 -127 25 -225 5 -30 14 -104 21
-163 11 -103 11 -109 -8 -135 -26 -34 -88 -42 -122 -15 -23 19 -44 92 -55 193
-16 144 -48 356 -54 361 -4 4 -38 2 -77 -3 -125 -17 -117 -12 -111 -66 2 -26
5 -53 5 -61 1 -10 11 -12 40 -8 l39 5 21 -137 c11 -75 26 -172 32 -216 14
-107 44 -151 131 -196 79 -41 203 -3 257 78 38 57 38 62 6 346 -34 304 -35
307 -48 305 -7 0 -32 -4 -57 -7z"/>
<path d="M11127 2533 c-2 -4 -8 -31 -12 -60 -6 -46 -5 -52 15 -58 13 -4 19
-13 16 -23 -2 -9 -7 -35 -10 -57 -14 -85 -17 -95 -35 -95 -14 0 -21 -13 -30
-57 -11 -56 -9 -65 22 -75 4 -2 0 -65 -8 -142 -9 -76 -15 -139 -13 -141 2 -1
30 -6 63 -10 l61 -6 12 103 c7 57 16 120 19 142 l6 38 41 -5 c27 -4 49 -15 64
-32 25 -29 25 -31 0 -189 -12 -78 -10 -80 60 -91 54 -8 58 -4 66 84 8 81 34
267 46 340 21 119 4 197 -56 252 -35 32 -70 44 -189 65 -49 8 -100 18 -111 20
-12 3 -24 2 -27 -3z m230 -163 c37 -22 47 -51 39 -107 -3 -21 -5 -49 -6 -62 0
-18 -4 -22 -17 -16 -10 4 -40 13 -68 19 -33 7 -50 17 -50 26 1 8 5 48 9 88 8
69 10 72 35 72 14 0 41 -9 58 -20z"/>
<path d="M2595 2470 c10 -11 20 -20 23 -20 3 0 -3 9 -13 20 -10 11 -20 20 -23
20 -3 0 3 -9 13 -20z"/>
<path d="M349 2463 c-13 -16 -12 -17 4 -4 9 7 17 15 17 17 0 8 -8 3 -21 -13z"/>
<path d="M4720 2460 c-8 -5 -27 -10 -42 -10 -15 0 -29 -4 -32 -8 -2 -4 2 -57
11 -117 23 -171 22 -193 -7 -215 -14 -10 -47 -22 -73 -25 -44 -6 -51 -4 -77
20 -21 20 -30 41 -35 79 -4 28 -10 67 -15 86 -4 19 -11 61 -15 93 -5 48 -10
57 -23 53 -9 -2 -49 -10 -87 -16 -97 -15 -98 -16 -90 -85 l8 -57 38 5 c42 6
36 17 60 -111 20 -108 75 -171 166 -190 l37 -8 19 -119 c11 -66 21 -121 22
-122 1 -2 27 3 58 9 67 14 67 12 38 158 -11 52 -18 95 -17 95 0 1 20 13 44 28
43 28 74 80 86 144 3 17 -6 93 -19 169 -14 76 -25 142 -25 146 0 11 -12 10
-30 -2z"/>
<path d="M11809 2433 c-1 -14 -7 -48 -14 -85 -5 -34 -4 -38 14 -38 25 0 25 4
6 -93 -8 -43 -15 -81 -15 -83 0 -2 -10 -3 -22 -1 -20 2 -24 -4 -29 -43 -3 -25
-9 -53 -13 -62 -6 -12 -2 -17 16 -20 13 -2 22 -8 21 -13 0 -6 -8 -59 -17 -119
-9 -60 -19 -119 -22 -131 -5 -20 0 -23 52 -33 32 -7 60 -12 64 -12 4 0 10 21
13 48 3 26 13 89 23 140 15 85 18 92 40 92 38 0 72 -21 85 -52 12 -29 7 -88
-17 -220 -6 -29 -1 -32 74 -43 42 -7 42 -7 42 25 0 17 7 63 16 102 18 79 14
166 -9 201 -12 19 -11 23 13 44 60 50 78 206 31 271 -44 62 -78 79 -213 106
-144 29 -138 29 -139 19z m196 -153 c6 0 23 -11 38 -25 71 -67 -12 -185 -105
-150 -12 5 -13 18 -6 68 15 112 17 119 41 113 12 -3 27 -6 32 -6z"/>
<path d="M2630 2426 c0 -2 8 -10 18 -17 15 -13 16 -12 3 4 -13 16 -21 21 -21
13z"/>
<path d="M3883 2386 c-34 -6 -64 -14 -68 -18 -4 -3 1 -44 11 -90 20 -92 20
-164 1 -186 -16 -20 -70 -42 -102 -42 -19 0 -25 5 -25 23 0 13 -9 66 -20 118
-12 52 -24 106 -27 122 -6 32 -3 31 -73 12 -30 -8 -66 -15 -80 -15 -49 -1 -53
-10 -39 -89 13 -67 15 -71 40 -71 24 0 27 -5 37 -52 6 -29 14 -61 17 -70 6
-14 2 -18 -14 -18 -30 0 -34 -17 -18 -85 12 -53 17 -60 39 -63 22 -3 27 -11
41 -65 9 -34 23 -106 33 -161 l18 -98 30 6 c17 3 49 10 71 14 37 7 40 10 38
37 -2 31 -14 92 -39 202 -21 91 -19 99 17 107 64 13 94 7 123 -23 27 -28 38
-62 67 -214 l11 -59 37 5 c45 6 94 17 100 22 2 3 -3 35 -12 72 -9 38 -19 86
-23 108 -13 75 -35 120 -80 162 l-44 42 20 38 c14 26 20 57 20 98 0 62 -30
246 -40 244 -3 -1 -33 -7 -67 -13z"/>
<path d="M12477 2313 c-2 -4 -8 -30 -12 -57 -3 -27 -9 -54 -11 -61 -3 -7 4
-15 15 -18 24 -6 27 -31 10 -89 -8 -30 -15 -38 -32 -38 -20 0 -25 -8 -35 -60
-13 -63 -10 -80 14 -80 21 0 18 -20 -24 -213 -14 -63 -16 -89 -8 -92 32 -8
119 -25 121 -23 2 2 15 62 29 133 36 176 31 165 69 158 107 -20 120 -62 77
-251 -18 -75 -18 -75 70 -87 l45 -6 23 133 24 133 -25 58 c-25 55 -25 57 -7
67 50 27 87 114 115 271 l7 36 -44 7 c-97 17 -91 21 -109 -74 -24 -131 -57
-167 -141 -154 -34 6 -39 10 -35 28 31 149 49 247 45 251 -2 3 -31 9 -64 14
-32 6 -71 13 -85 16 -15 4 -29 3 -32 -2z"/>
<path d="M1130 1748 c-41 -22 -90 -72 -79 -82 3 -3 34 7 69 21 56 23 80 27
172 27 60 1 108 5 108 9 0 4 -19 17 -42 27 -62 28 -170 27 -228 -2z"/>
<path d="M1797 1684 c-14 -15 -6 -22 46 -43 94 -37 195 -52 226 -32 20 13 -31
37 -121 58 -96 21 -141 26 -151 17z"/>
<path d="M1 1634 c0 -11 3 -14 6 -6 3 7 2 16 -1 19 -3 4 -6 -2 -5 -13z"/>
<path d="M2951 1634 c0 -11 3 -14 6 -6 3 7 2 16 -1 19 -3 4 -6 -2 -5 -13z"/>
<path d="M2182 1590 c0 -19 3 -57 8 -85 l7 -50 1 45 c1 25 -3 63 -7 85 l-9 40
0 -35z"/>
<path d="M1908 1534 c-32 -10 -58 -27 -82 -56 -34 -40 -45 -61 -28 -55 4 1 21
-13 37 -31 29 -31 32 -32 70 -21 22 6 50 20 63 32 19 17 25 19 31 8 7 -11 11
-9 20 7 13 25 14 82 1 102 -7 12 -3 16 23 21 24 5 17 7 -28 7 -33 0 -81 -6
-107 -14z m-18 -39 c0 -9 -9 -15 -21 -15 -18 0 -19 2 -9 15 7 8 16 15 21 15 5
0 9 -7 9 -15z"/>
<path d="M6808 1542 l-57 -3 1 -64 c1 -61 2 -64 27 -67 26 -3 26 -4 29 -100 3
-93 2 -98 -17 -98 -18 0 -21 -6 -21 -49 0 -62 7 -81 30 -81 23 0 30 -27 30
-117 0 -66 -2 -73 -20 -73 -18 0 -20 -7 -20 -66 l0 -66 123 6 c149 8 218 26
259 68 36 37 68 108 68 151 l0 32 -64 -3 -64 -4 -7 -34 c-7 -41 -53 -74 -101
-74 -27 0 -32 4 -38 31 -3 17 -6 60 -6 94 0 73 -1 72 123 77 l67 3 0 57 c0 31
-3 59 -7 61 -5 2 -51 1 -103 -3 -52 -4 -96 -7 -97 -6 -1 0 -3 48 -4 106 l-3
105 53 0 c46 -1 57 -5 77 -29 13 -15 24 -34 24 -42 0 -11 14 -14 60 -14 58 0
60 1 60 25 0 37 -34 97 -74 133 -59 51 -95 56 -328 44z"/>
<path d="M8219 1520 c-4 -22 4 -107 11 -114 5 -5 4 -20 -1 -34 -6 -15 -10
-112 -11 -217 0 -216 5 -240 67 -293 49 -44 77 -54 152 -55 52 -1 69 4 109 29
49 31 94 97 94 139 0 13 6 28 14 32 8 5 15 30 17 63 l4 55 -127 3 c-142 3
-138 6 -129 -80 l3 -38 50 0 50 0 -19 -32 c-28 -48 -64 -63 -103 -43 -56 29
-61 46 -59 224 2 178 11 215 61 239 22 10 33 10 62 -2 41 -17 57 -43 59 -96
l1 -40 57 0 57 0 4 35 c10 87 -62 195 -140 210 -46 9 -282 22 -283 15z"/>
<path d="M7460 1455 c0 -67 0 -67 25 -63 14 3 27 2 29 -1 2 -3 6 -112 7 -241
2 -129 5 -263 7 -297 l4 -62 64 1 64 2 -6 297 -6 296 44 6 c51 7 88 -8 104
-43 10 -22 23 -284 24 -477 l0 -63 61 0 61 0 -6 268 c-3 147 -8 278 -12 292
-4 14 -16 39 -28 55 -51 74 -86 86 -278 92 l-158 5 0 -67z"/>
<path d="M8900 1449 l0 -59 31 0 30 0 -5 -92 c-3 -51 -8 -186 -12 -300 l-7
-208 61 0 60 0 4 38 c6 44 10 237 12 492 l1 185 -87 1 -88 2 0 -59z"/>
<path d="M9356 1469 c-3 -17 -6 -47 -6 -65 0 -30 3 -34 25 -34 22 0 25 -4 25
-38 0 -55 -29 -493 -35 -517 -7 -33 6 -42 71 -48 l61 -6 11 182 c7 100 15 235
18 301 l7 118 55 -5 c75 -8 97 -31 97 -100 0 -28 -6 -150 -14 -270 -7 -120
-11 -220 -8 -223 7 -7 106 -9 112 -2 3 3 10 75 15 159 5 85 12 200 16 256 8
124 2 157 -36 215 -39 59 -78 73 -253 93 -77 8 -142 15 -147 15 -4 0 -10 -14
-14 -31z"/>
<path d="M1185 1465 c-27 -7 -61 -18 -75 -24 -23 -10 -22 -10 10 -5 l35 5 0
-55 c0 -30 5 -60 12 -67 7 -7 37 -14 67 -17 45 -4 59 -1 85 19 24 18 34 20 40
11 12 -20 31 33 25 68 -11 51 23 32 60 -35 l17 -30 -6 34 c-15 91 -133 133
-270 96z m53 -38 c4 -20 -25 -34 -40 -19 -15 15 -1 44 19 40 10 -2 19 -11 21
-21z"/>
<path d="M5631 1437 l-93 -10 6 -51 c3 -28 6 -64 6 -80 0 -25 3 -28 26 -23 31
5 30 6 44 -108 30 -265 38 -312 58 -351 24 -47 81 -100 128 -120 41 -17 164
-17 259 0 77 14 73 7 60 99 l-6 48 -57 -6 c-31 -3 -80 -11 -109 -16 -63 -12
-115 6 -136 48 -15 27 -18 50 -37 243 -29 305 -35 341 -47 338 -4 -1 -50 -6
-102 -11z"/>
<path d="M10085 1427 c-2 -7 -6 -34 -9 -60 -5 -43 -3 -50 14 -54 22 -6 23 -17
14 -112 -6 -51 -10 -61 -26 -61 -22 0 -25 -7 -31 -74 -4 -41 -2 -49 14 -53 21
-6 24 -41 13 -126 -5 -37 -11 -47 -28 -49 -17 -2 -22 -12 -28 -58 -3 -30 -6
-56 -5 -57 8 -7 255 -23 280 -18 74 16 157 103 157 165 0 24 -4 26 -42 28 -24
2 -51 5 -60 8 -13 4 -18 0 -18 -14 0 -36 -36 -65 -89 -70 l-49 -4 5 68 c8 125
0 118 102 110 l88 -7 6 53 c2 29 4 54 2 56 -1 1 -42 6 -90 9 l-87 6 7 91 c4
50 9 94 12 99 18 31 115 -22 123 -68 5 -29 8 -30 63 -33 57 -3 57 -3 57 25 0
31 -29 97 -57 129 -30 36 -76 53 -174 64 -52 5 -109 12 -127 15 -20 2 -34 -1
-37 -8z"/>
<path d="M1 1364 c0 -11 3 -14 6 -6 3 7 2 16 -1 19 -3 4 -6 -2 -5 -13z"/>
<path d="M2951 1364 c0 -11 3 -14 6 -6 3 7 2 16 -1 19 -3 4 -6 -2 -5 -13z"/>
<path d="M5170 1363 c-157 -24 -158 -25 -198 -59 l-40 -34 -44 20 c-23 11 -63
19 -88 19 -59 -1 -295 -42 -293 -52 0 -4 4 -34 8 -66 l7 -59 31 5 32 5 18
-114 c9 -62 17 -125 17 -140 0 -15 4 -37 9 -50 5 -13 18 -87 28 -166 10 -79
21 -148 24 -153 4 -6 30 -8 68 -3 l61 7 0 41 c0 39 -9 102 -65 446 -26 159
-26 160 37 160 83 0 100 -22 118 -150 5 -41 17 -111 25 -155 8 -44 19 -114 25
-155 16 -121 21 -155 25 -158 5 -6 111 9 124 17 8 6 9 21 2 57 -9 43 -31 186
-72 450 -11 72 -10 83 6 107 18 28 82 54 108 44 12 -5 25 -60 43 -187 22 -157
36 -245 45 -291 6 -30 13 -74 16 -99 3 -25 6 -46 7 -48 2 -1 31 1 65 5 l63 6
-6 36 c-4 20 -8 50 -10 66 -6 46 -63 395 -88 533 l-22 122 -30 -1 c-17 -1 -42
-3 -56 -6z"/>
<path d="M10766 1308 c-4 -29 -8 -55 -9 -58 -1 -3 9 -6 21 -8 19 -3 23 -8 18
-25 -3 -12 -8 -52 -12 -89 -6 -62 -9 -68 -29 -68 -18 0 -24 -7 -29 -37 -9 -59
-7 -83 8 -83 21 0 23 -17 13 -97 -8 -67 -11 -73 -32 -73 -18 0 -24 -7 -29 -37
-13 -81 -15 -78 80 -93 141 -21 214 -18 258 10 42 26 96 102 96 136 0 16 -8
23 -31 28 -62 12 -86 8 -93 -18 -7 -28 -65 -59 -104 -54 -25 3 -27 6 -25 48 1
25 5 65 8 89 l7 43 87 -7 c98 -8 96 -9 100 61 l2 41 -53 6 c-29 4 -70 7 -91 7
-37 0 -38 1 -33 28 7 34 26 154 26 165 0 11 66 0 90 -15 19 -12 29 -32 35 -67
2 -15 47 -29 98 -30 34 -2 19 81 -29 150 -32 46 -75 65 -196 84 -149 23 -144
24 -152 -37z"/>
<path d="M11440 1241 c0 -16 -3 -43 -6 -60 -6 -27 -3 -33 15 -38 17 -4 21 -11
17 -27 -2 -11 -10 -49 -17 -83 -10 -55 -14 -63 -34 -63 -20 0 -24 -6 -27 -47
-2 -27 -6 -55 -9 -63 -2 -9 4 -16 19 -18 16 -3 21 -8 17 -21 -2 -9 -9 -50 -15
-91 -5 -41 -13 -97 -18 -123 -7 -35 -6 -50 2 -52 13 -5 98 -24 108 -25 3 0 9
24 13 53 4 28 13 90 21 136 8 46 14 88 14 92 0 13 60 1 87 -17 32 -20 38 -57
25 -136 -7 -38 -12 -86 -12 -107 l0 -39 51 -7 c27 -4 52 -5 54 -4 2 2 6 28 10
56 3 29 11 67 16 85 14 50 11 123 -7 168 -16 40 -16 40 14 74 58 67 67 194 18
264 -38 55 -87 78 -216 102 -144 25 -140 26 -140 -9z m228 -140 c42 -22 53
-71 28 -120 -19 -35 -55 -51 -100 -44 -30 5 -35 9 -31 27 2 11 7 44 10 71 12
91 13 94 44 85 16 -4 38 -13 49 -19z"/>
<path d="M1716 1085 c-11 -8 -30 -15 -43 -15 -13 0 -23 -5 -23 -10 0 -6 11 -8
28 -4 37 9 62 23 62 34 0 13 -1 12 -24 -5z"/>
<path d="M1725 960 c-16 -4 -56 -8 -87 -9 -31 0 -60 -6 -63 -11 -8 -14 113 -2
170 16 43 13 29 16 -20 4z"/>
<path d="M1483 943 c9 -2 25 -2 35 0 9 3 1 5 -18 5 -19 0 -27 -2 -17 -5z"/>
<path d="M1237 659 c7 -7 15 -10 18 -7 3 3 -2 9 -12 12 -14 6 -15 5 -6 -5z"/>
<path d="M310 586 c0 -2 8 -10 18 -17 15 -13 16 -12 3 4 -13 16 -21 21 -21 13z"/>
<path d="M2629 573 c-13 -16 -12 -17 4 -4 16 13 21 21 13 21 -2 0 -10 -8 -17
-17z"/>
<path d="M350 537 c0 -2 15 -16 33 -33 l32 -29 -29 33 c-28 30 -36 37 -36 29z"/>
<path d="M2569 503 l-34 -38 38 34 c20 19 37 36 37 38 0 8 -8 0 -41 -34z"/>
<path d="M2480 415 c-24 -25 -42 -45 -39 -45 3 0 25 20 49 45 24 25 42 45 39
45 -3 0 -25 -20 -49 -45z"/>
<path d="M460 427 c0 -2 15 -16 33 -33 l32 -29 -29 33 c-28 30 -36 37 -36 29z"/>
<path d="M540 356 c0 -2 8 -10 18 -17 15 -13 16 -12 3 4 -13 16 -21 21 -21 13z"/>
<path d="M2399 343 c-13 -16 -12 -17 4 -4 9 7 17 15 17 17 0 8 -8 3 -21 -13z"/>
<path d="M1353 23 c9 -2 23 -2 30 0 6 3 -1 5 -18 5 -16 0 -22 -2 -12 -5z"/>
<path d="M1583 23 c9 -2 23 -2 30 0 6 3 -1 5 -18 5 -16 0 -22 -2 -12 -5z"/>
</g>
</svg>
